<svg width="20" height="21" viewBox="0 0 20 21" fill="none" xmlns="http://www.w3.org/2000/svg">
<path fill-rule="evenodd" clip-rule="evenodd" d="M10 17.5017V17.5017C5.8575 17.5017 2.5 14.1442 2.5 10.0017V10.0017C2.5 5.85921 5.8575 2.50171 10 2.50171V2.50171C14.1425 2.50171 17.5 5.85921 17.5 10.0017V10.0017C17.5 14.1442 14.1425 17.5017 10 17.5017Z" stroke="#7D818E" stroke-width="1.5" stroke-linecap="round" stroke-linejoin="round"/>
<path d="M9.99935 14.1684V10.0017H9.16602" stroke="#7D818E" stroke-width="1.5" stroke-linecap="round" stroke-linejoin="round"/>
<path d="M9.79084 6.66836C9.67584 6.66836 9.5825 6.76169 9.58334 6.87669C9.58334 6.99169 9.67667 7.08502 9.79167 7.08502C9.90667 7.08502 10 6.99169 10 6.87669C10 6.76169 9.90667 6.66836 9.79084 6.66836" stroke="#7D818E" stroke-width="1.5" stroke-linecap="round" stroke-linejoin="round"/>
</svg>
