<!-- icon666.com - MILLIONS vector ICONS FREE --><svg viewBox="0 0 56 60" xmlns="http://www.w3.org/2000/svg"><g id="Page-1" fill="none" fill-rule="evenodd"><g id="007---Flower-Shop" fill-rule="nonzero"><path id="Shape" d="m47 31v20h-6c-1.1032019.0032948-1.9967052.8967981-2 2v2h-22v-2c-.0032948-1.1032019-.8967981-1.9967052-2-2h-6v-20z" fill="#ffdc00"></path><path id="Rectangle-path" d="m44 31h3v20h-3z" fill="#fec108"></path><path id="Shape" d="m36 53v2h3v-2c.0032948-1.1032019.8967981-1.9967052 2-2h-3c-1.1032019.0032948-1.9967052.8967981-2 2z" fill="#fec108"></path><path id="Shape" d="m47 24.9v6.1h-38v-6.1c2.3264168-.4784327 3.9970017-2.5248992 4-4.9 0 2.7614237 2.2385763 5 5 5s5-2.2385763 5-5c0 2.7614237 2.2385763 5 5 5s5-2.2385763 5-5c0 2.7614237 2.2385763 5 5 5s5-2.2385763 5-5c.0029983 2.3751008 1.6735832 4.4215673 4 4.9z" fill="#ff9801"></path><path id="Shape" d="m43 20c.0005951 1.3367525-.5359216 2.6176906-1.489 3.555.6828793.6786048 1.5471491 1.1456369 2.489 1.345v6.1h3v-6.1c-2.3264168-.4784327-3.9970017-2.5248992-4-4.9z" fill="#f57c00"></path><path id="Shape" d="m53 19.78c.0027771 1.624773-.7330891 3.1627332-2 4.18-1.5048771 1.1515943-3.5332106 1.3484961-5.2314857.5078499s-2.7716739-2.5729055-2.7685143-4.4678499v-3l-5-11h5.47c.961644.0011403 1.8647787.46199912 2.43 1.24l6.33 8.71c.913 1.241.77 2.332.77 3.83z" fill="#f44335"></path><path id="Shape" d="m52.23 15.95-6.33-8.71c-.5652213-.77800088-1.468356-1.2388597-2.43-1.24h-3c.961644.0011403 1.8647787.46199912 2.43 1.24l6.33 8.71c.913 1.241.77 2.332.77 3.83.0247884 2.2348942-1.3791786 4.2364225-3.489 4.974 1.5514855.4720879 3.2354194.1668673 4.5225125-.8197255 1.2870931-.9865929 2.0193045-2.5334153 1.9664875-4.1542745 0-1.506.143-2.589-.77-3.83z" fill="#c81e1e"></path><path id="Shape" d="m43 17v3c0 2.7614237-2.2385763 5-5 5s-5-2.2385763-5-5v-3l-2-11h7z" fill="#f5f5f5"></path><path id="Shape" d="m38 6h-3l5 11v3c-.0056526 2.1761534-1.4225411 4.0970494-3.5 4.745.4838155.1620147.9898258.2480365 1.5.255 2.7614237 0 5-2.2385763 5-5v-3z" fill="#cfd8dc"></path><path id="Shape" d="m33 17v3c0 2.7614237-2.2385763 5-5 5s-5-2.2385763-5-5v-3l2-11h6z" fill="#f44335"></path><path id="Shape" d="m31 6h-3l2 11v3c-.0056526 2.1761534-1.4225411 4.0970494-3.5 4.745.4838155.1620147.9898258.2480365 1.5.255 2.7614237 0 5-2.2385763 5-5v-3z" fill="#c81e1e"></path><path id="Shape" d="m25 6-2 11v3c0 2.7614237-2.2385763 5-5 5s-5-2.2385763-5-5v-3l5-11z" fill="#f5f5f5"></path><path id="Shape" d="m22 6-2 11v3c-.0056526 2.1761534-1.4225411 4.0970494-3.5 4.745.4838155.1620147.9898258.2480365 1.5.255 2.7614237 0 5-2.2385763 5-5v-3l2-11z" fill="#cfd8dc"></path><path id="Shape" d="m18 6-5 11v3c-.0028855 1.4107153-.6000426 2.7549218-1.6449223 3.7027362-1.0448798.9478144-2.44076063 1.4115003-3.8450777 1.2772638-2.61010659-.3283382-4.55404966-2.5696917-4.51-5.2 0-1.506-.143-2.589.77-3.83l6.33-8.71c.5652213-.77800088 1.468356-1.2388597 2.43-1.24z" fill="#f44335"></path><path id="Shape" d="m15 6-5 11v3c-.00547358 2.1817253-1.42739485 4.1070496-3.511 4.754 1.51785435.485773 3.17643952.2173146 4.4635533-.7224702 1.2871137-.9397848 2.0479123-2.4378369 2.0474467-4.0315298v-3l5-11z" fill="#c81e1e"></path><path id="Shape" d="m31 5c.0050973.79226796-.1800926 1.57418053-.54 2.28-.5611237-.80389722-1.4796375-1.28290944-2.46-1.28290944s-1.8988763.47901222-2.46 1.28290944c-.3599074-.70581947-.5450973-1.48773204-.54-2.28-.0029342-.3871592.0407126-.77326585.13-1.15.37-1.65 1.51-2.85 2.87-2.85s2.5 1.2 2.87 2.85c.0892874.37673415.1329342.7628408.13 1.15z" fill="#ffeb3a"></path><path id="Shape" d="m25.54 7.28c-.1088086.15751598-.202555.3249204-.28.5-.6492334.09246834-1.2761582.30257284-1.85.62-.311519.17193016-.6061533.37281716-.88.6-1.4-1.15-1.94-2.8-1.2-4 .8998967-1.14268895 2.4175101-1.60196668 3.8-1.15-.0892874.37673415-.1329342.7628408-.13 1.15-.0050973.79226796.1800926 1.57418053.54 2.28z" fill="#fdd834"></path><path id="Shape" d="m28 12.5c-.4059882.4420602-.8824461.8137649-1.41 1.1-.4589607.2498149-.950289.4349043-1.46.55-1.3824899.4519667-2.9001033-.0073111-3.8-1.15-.74-1.2-.2-2.85 1.2-4 .2738467-.22718284.568481-.42806984.88-.6.5738418-.31742716 1.2007666-.52753166 1.85-.62-.1731118.38332941-.2617822.7993981-.26 1.22-.0036867 1.495874 1.0983108 2.7644525 2.58 2.97.1288546.1852196.2691264.3622293.42.53z" fill="#ffeb3a"></path><path id="Shape" d="m30.87 14.15c-.37 1.65-1.51 2.85-2.87 2.85s-2.5-1.2-2.87-2.85c.509711-.1150957 1.0010393-.3001851 1.46-.55.5275539-.2862351 1.0040118-.6579398 1.41-1.1.4059882.4420602.8824461.8137649 1.41 1.1.4589607.2498149.950289.4349043 1.46.55z" fill="#fdd834"></path><path id="Shape" d="m34.67 13c-.8998967 1.1426889-2.4175101 1.6019667-3.8 1.15-.509711-.1150957-1.0010393-.3001851-1.46-.55-.7312826-.389588-1.358747-.948477-1.83-1.63.8602862.121638 1.7310547-.1356664 2.38706-.7053552.6560053-.5696887 1.0328084-1.39580176 1.03294-2.2646448.0017822-.4206019-.0868882-.83667059-.26-1.22.6492334.09246834 1.2761582.30257284 1.85.62.311519.17193016.6061533.37281716.88.6 1.4 1.15 1.94 2.8 1.2 4z" fill="#ffeb3a"></path><circle id="Oval" cx="28" cy="9" fill="#ff9801" r="3"></circle><path id="Shape" d="m33.47 9c-.2738467-.22718284-.568481-.42806984-.88-.6-.5738418-.31742716-1.2007666-.52753166-1.85-.62-.077445-.1750796-.1711914-.34248402-.28-.5.3599074-.70581947.5450973-1.48773204.54-2.28.0029342-.3871592-.0407126-.77326585-.13-1.15 1.3824899-.45196668 2.9001033.00731105 3.8 1.15.74 1.2.2 2.85-1.2 4z" fill="#fdd834"></path><rect id="Rectangle-path" fill="#607d8b" height="4" rx="1" width="54" x="1" y="55"></rect><path id="Shape" d="m54 55h-3c.5522847 0 1 .4477153 1 1v2c0 .5522847-.4477153 1-1 1h3c.5522847 0 1-.4477153 1-1v-2c0-.5522847-.4477153-1-1-1z" fill="#37474f"></path><path id="Shape" d="m9 24.9v26.1h-4v-27.04c.71897989.5780333 1.59161838.9326513 2.51 1.02.4978426.0493667 1.00030535.0223889 1.49-.08z" fill="#ffeb3a"></path><path id="Shape" d="m51 23.96v27.04h-4v-26.1c.4896946.1023889.9921574.1293667 1.49.08.9183816-.0873487 1.7910201-.4419667 2.51-1.02z" fill="#ffeb3a"></path><path id="Shape" d="m17 53v2h-14v-2c.0032948-1.1032019.89679813-1.9967052 2-2h10c1.1032019.0032948 1.9967052.8967981 2 2z" fill="#91562d"></path><path id="Shape" d="m15 51h-3c1.1032019.0032948 1.9967052.8967981 2 2v2h3v-2c-.0032948-1.1032019-.8967981-1.9967052-2-2z" fill="#6d4122"></path><path id="Shape" d="m53 53v2h-14v-2c.0032948-1.1032019.8967981-1.9967052 2-2h10c1.1032019.0032948 1.9967052.8967981 2 2z" fill="#91562d"></path><path id="Shape" d="m51 51h-3c1.1032019.0032948 1.9967052.8967981 2 2v2h3v-2c-.0032948-1.1032019-.8967981-1.9967052-2-2z" fill="#6d4122"></path><path id="Shape" d="m28 31c3.8659932 0 7 3.1340068 7 7v17h-14v-17c0-3.8659932 3.1340068-7 7-7z" fill="#3f51b5"></path><path id="Shape" d="m28 31c-.5044849.0007873-1.0074065.0561087-1.5.165 3.210739.7043773 5.4988743 3.5479054 5.5 6.835v17h3v-17c0-3.8659932-3.1340068-7-7-7z" fill="#283593"></path><g fill="#e91e63"><path id="Shape" d="m13 37h2c.5522847 0 1 .4477153 1 1v3c0 1.1045695-.8954305 2-2 2s-2-.8954305-2-2v-3c0-.5522847.4477153-1 1-1z"></path><path id="Shape" d="m5 37h2c.55228475 0 1 .4477153 1 1v3c0 1.1045695-.8954305 2-2 2s-2-.8954305-2-2v-3c0-.5522847.44771525-1 1-1z"></path><path id="Shape" d="m49 37h2c.5522847 0 1 .4477153 1 1v3c0 1.1045695-.8954305 2-2 2s-2-.8954305-2-2v-3c0-.5522847.4477153-1 1-1z"></path><path id="Shape" d="m41 37h2c.5522847 0 1 .4477153 1 1v3c0 1.1045695-.8954305 2-2 2s-2-.8954305-2-2v-3c0-.5522847.4477153-1 1-1z"></path></g><path id="Shape" d="m2 60h52c1.1045695 0 2-.8954305 2-2v-2c0-1.1045695-.8954305-2-2-2v-1c-.0046947-1.5651173-1.2140677-2.862524-2.775-2.977.4861868-.9168672 1.250925-1.6556939 2.184-2.11.3263621-.1455857.5502641-.4542246.5873642-.8096554.0371001-.3554307-.118238-.7036549-.4075-.9135-.289262-.209845-.6685021-.2494303-.9948642-.1038446-.5725927.2744222-1.1081763.620166-1.594 1.029v-3.3c1.1940068-.4221309 1.9943273-1.548582 2-2.815v-3c-.002145-.7113268-.3832487-1.3675874-1-1.722v-11.873c1.2755939-1.2001391 1.9992439-2.8735797 2-4.625v-1.48c-.0019636-1.0562557-.3383795-2.084757-.961-2.938l-6.331-8.712c-.7559009-1.0331898-1.9578248-1.64565879-3.238-1.65h-7.7c-.0669811-.1816891-.150673-.35677261-.25-.523-.8872589-1.27571525-2.4157558-1.94508484-3.955-1.732-.5026299-1.5667944-1.9217792-2.65951949-3.565-2.745-1.6440778.0841175-3.064642 1.1766142-3.568 2.744-1.5382734-.21179646-3.0653854.45691865-3.953 1.731-.0994721.1669953-.1834876.34272489-.251.525h-7.7c-1.2808849.00449096-2.4833161.61777175-3.239 1.652l-6.327 8.7c-.6244281.856169-.96124055 1.8883136-.962 2.948v1.48c.00075608 1.7514203.72440606 3.4248609 2 4.625v11.873c-.61675126.3544126-.997855 1.0106732-1 1.722v3c.00525139 1.2667854.80564913 2.3937454 2 2.816v3.3c-.4858237-.408834-1.02140732-.7545778-1.594-1.029-.50478826-.2242276-1.09577238.0032118-1.31999999.508-.2242276.5047883.00321174 1.0957724.50799999 1.32.92995291.4564929 1.6923962 1.1944428 2.179 2.109-1.55976028.1154391-2.76786307 1.4119821-2.773 2.976v1c-1.1045695 0-2 .8954305-2 2v2c0 1.1045695.8954305 2 2 2zm50-7v1h-12v-1c0-.5522847.4477153-1 1-1h10c.5522847 0 1 .4477153 1 1zm-6-6.018c-.0072555.4017992.2267176.7689084.594.932.9221553.4531123 1.6802701 1.1822167 2.169 2.086h-5.528c.4888513-.9056947 1.249106-1.6355252 2.174-2.087.3657695-.1638573.5983706-.5302729.591-.931zm-4-4.982c-.5522847 0-1-.4477153-1-1v-3h2v3c0 .5522847-.4477153 1-1 1zm9-1c0 .5522847-.4477153 1-1 1s-1-.4477153-1-1v-3h2zm-1-5h-1c-1.1045695 0-2 .8954305-2 2v3c.0052514 1.2667854.8056491 2.3937454 2 2.816v3.3c-.4858237-.408834-1.0214073-.7545778-1.594-1.029-.3059678-.1360167-.6597055-.1098731-.942353.0696463-.2826475.1795193-.45669.4885875-.463647.8233537-.0023325-.1331509-.0315863-.2644527-.086-.386-.1076536-.242429-.3072157-.4321539-.5547725-.5274258s-.5228235-.088284-.7652275.0194258c-.5725927.2744222-1.1081763.620166-1.594 1.029v-3.3c1.1940068-.4221309 1.9943273-1.548582 2-2.815v-3c0-1.1045695-.8954305-2-2-2h-2c-1.1045695 0-2 .8954305-2 2v3c.0052514 1.2667854.8056491 2.3937454 2 2.816v3.3c-.4858237-.408834-1.0214073-.7545778-1.594-1.029-.3265408-.1450498-.70566-.104874-.9945472.1053937-.2888873.2102676-.4436536.5586825-.4060001.914.0376536.3553175.2620065.6635565.5885473.8086063.9299529.4564929 1.6923962 1.1944428 2.179 2.109-1.5597603.1154391-2.7678631 1.4119821-2.773 2.976v1h-2v-16c-.001299-2.2994431-.9949291-4.48645-2.726-6h12.726v1c0 .5522847.4477153 1 1 1s1-.4477153 1-1v-7c.2 0 .39-.006.586-.024.483571-.0492787.9587999-.1605239 1.414-.331zm-28 18v-5h5v5zm6-22c3.3123376.0033074 5.9966926 2.6876624 6 6v2h-5v-5c0-.5522847-.4477153-1-1-1s-1 .4477153-1 1v5h-5v-2c.0033074-3.3123376 2.6876624-5.9966926 6-6zm-18-6.358c1.2302006-.422915 2.2853201-1.2420395 3-2.329.9185511 1.3791115 2.3660595 2.3174588 4 2.593v1.094c0 .5522847.4477153 1 1 1s1-.4477153 1-1v-1.094c1.6339405-.2755412 3.0814489-1.2138885 4-2.593.9185511 1.3791115 2.3660595 2.3174588 4 2.593v1.094c0 .5522847.4477153 1 1 1s1-.4477153 1-1v-1.094c1.6339405-.2755412 3.0814489-1.2138885 4-2.593.9207613 1.3864288 2.3760301 2.3281159 4.018 2.6-.0074286.028686-.0134359.0577214-.018.087v1c0 .5522847.4477153 1 1 1s1-.4477153 1-1v-1c-.0044654-.0302866-.0104732-.0603257-.018-.09 1.6414631-.271162 3.0966459-1.211707 4.018-2.597.7163815 1.0869441 1.7706335 1.9078551 3 2.336v4.351h-36zm8-7.642c.5522847 0 1-.4477153 1-1s-.4477153-1-1-1h-3.447l4.091-9h1.456c.1764974.73976435.5291768 1.42591114 1.028 2-1.186424 1.2015471-1.4489819 3.0370181-.647 4.523.7891936 1.1648944 2.1309566 1.8312224 3.536 1.756.137 0 .278-.014.419-.024.5022545 1.5666389 1.9210486 2.659397 3.564 2.745 1.6436986-.0847941 3.0634867-1.1777044 3.566-2.745.141.01.282.024.419.024 1.4045313.0750604 2.7459303-.5903282 3.536-1.754.8025654-1.4863836.540427-3.3225698-.646-4.525.4973812-.57463878.8489712-1.26066809 1.025-2h1.454l4.091 9h-3.445c-.5522847 0-1 .4477153-1 1s.4477153 1 1 1h4v2c0 2.209139-1.790861 4-4 4s-4-1.790861-4-4v-1c0-.5522847-.4477153-1-1-1s-1 .4477153-1 1v1c0 2.209139-1.790861 4-4 4s-4-1.790861-4-4v-1c0-.5522847-.4477153-1-1-1s-1 .4477153-1 1v1c0 2.209139-1.790861 4-4 4s-4-1.790861-4-4v-2zm14.835-8.227c1.019.837 1.434 1.974.983 2.7-.6864968.7602864-1.7613063 1.0359796-2.729.7-.4162622-.0936579-.8176826-.2440644-1.193-.447-.068-.039-.117-.088-.182-.128 1.3162419-.6280961 2.1845095-1.924745 2.264-3.381.04.021.082.032.122.053.2603381.14407416.506438.3124936.735.503zm-4.827 4.079c.2910806.2338635.6007769.4435607.926.627.2141708.1123577.4345224.2125175.66.3-.260179.6738211-.8756717 1.145287-1.594 1.221-.7178505-.075357-1.3332238-.5459593-1.594-1.219.2278542-.0902727.450826-.1924125.668-.306.3278934-.1816984.6402806-.3900681.934-.623zm1.992-4.852c0 1.1045695-.8954305 2-2 2s-2-.8954305-2-2 .8954305-2 2-2 2 .8954305 2 2zm-5.978.22c.0814025 1.4573709.9524882 2.7538348 2.271 3.38-.062.038-.115.082-.18.118-.3771757.205891-.7809956.3586696-1.2.454-.967119.3348141-2.0407139.0592305-2.727-.7-.451-.728-.036-1.865 1-2.712.2209546-.18325537.45867-.34530358.71-.484.035-.021.081-.034.126-.056zm-2.022 32.78h5v5h-5zm7 0h5v5h-5zm0 7h5v5h-5zm16.092-41.172 6.333 8.715c.3728913.5099986.5742301 1.1252201.575 1.757v1.48c.0408285 2.1111155-1.5074768 3.9174717-3.6 4.2-1.1241697.1101696-2.242654-.259015-3.0803498-1.0167489-.8376958-.757734-1.3168648-1.8336993-1.3196502-2.9632511v-2h3c.5522847 0 1-.4477153 1-1s-.4477153-1-1-1h-3.356l-4.091-9h3.917c.6413509.00328137 1.243153.31048986 1.622.828zm-11.274-2.3c.3214.74971164.1373173 1.6205025-.46 2.176-.1-.06-.187-.122-.292-.18-.4440714-.23558045-.9138455-.4191279-1.4-.547.2200649-.63595211.3329351-1.30404941.334-1.977 0-.095-.011-.181-.015-.273.7060583-.05760001 1.3940997.24194012 1.833.798zm-5.818-3.528c.842 0 1.621.851 1.9 2.086.0701371.29950773.1037152.60641215.1.914-.0088396.17576462-.0288803.35078653-.06.524-1.1989648-.69871313-2.6810352-.69871313-3.88 0-.0311197-.17321347-.0511604-.34823538-.06-.524-.0025899-.31243779.0326668-.6240395.105-.928.274-1.222 1.053-2.072 1.895-2.072zm-3.985 2.727c0 .092-.015.179-.015.273.0008914.67173664.11273 1.33871336.331 1.974-.4898358.13051381-.9632181.31637759-1.411.554-.1.056-.185.115-.278.172-.5974877-.55582045-.7815645-1.42698385-.46-2.177.4396676-.55487272 1.1273923-.85352459 1.833-.796zm-20.015 13.573c.00120315-.6337241.20359366-1.2507001.578-1.762l6.329-8.707c.3782039-.51917643.980683-.82765466 1.623-.831h3.917l-4.091 9h-3.356c-.55228475 0-1 .4477153-1 1s.44771525 1 1 1h3v2c-.0017954 1.1292894-.4797988 2.2054478-1.3164909 2.9638963s-1.95446512 1.128837-3.0785091 1.0201037c-2.09605936-.2803821-3.6475793-2.0896997-3.605-4.204zm3.416 7.676c.188.017.377.026.564.026l.02-.002v7c0 .5522847.44771525 1 1 1s1-.4477153 1-1v-1h12.726c-1.7310709 1.51355-2.724701 3.7005569-2.726 6v16h-2v-1c-.0046947-1.5651173-1.2140677-2.862524-2.775-2.977.4861868-.9168672 1.250925-1.6556939 2.184-2.11.3263621-.1455857.5502641-.4542246.5873642-.8096554.0371001-.3554307-.118238-.7036549-.4075-.9135-.289262-.209845-.6685021-.2494303-.9948642-.1038446-.5725927.2744222-1.1081763.620166-1.594 1.029v-3.3c1.1940068-.4221309 1.9943273-1.548582 2-2.815v-3c0-1.1045695-.8954305-2-2-2h-2c-1.1045695 0-2 .8954305-2 2v3c.0052514 1.2667854.8056491 2.3937454 2 2.816v3.3c-.4858237-.408834-1.0214073-.7545778-1.594-1.029-.3059678-.1360167-.6597055-.1098731-.942353.0696463-.2826475.1795193-.45669.4885875-.463647.8233537-.00233252-.1331509-.0315863-.2644527-.086-.386-.1076536-.242429-.30721567-.4321539-.5547725-.5274258-.24755682-.0952719-.5228235-.088284-.7652275.0194258-.57259268.2744222-1.1081763.620166-1.594 1.029v-3.3c1.19400678-.4221309 1.99432733-1.548582 2-2.815v-3c0-1.1045695-.8954305-2-2-2h-1v-10.356c.45570615.1712728.93165685.2828657 1.416.332zm2.584 21.006c-.00725548.4017992.2267176.7689084.594.932.9221553.4531123 1.6802701 1.1822167 2.169 2.086h-5.528c.48885131-.9056947 1.24910601-1.6355252 2.174-2.087.36576948-.1638573.5983706-.5302729.591-.931zm4-4.982c-.5522847 0-1-.4477153-1-1v-3h2v3c0 .5522847-.4477153 1-1 1zm-9-4h2v3c0 .5522847-.44771525 1-1 1s-1-.4477153-1-1zm-1 15c0-.5522847.44771525-1 1-1h10c.5522847 0 1 .4477153 1 1v1h-12zm-2 3h52v2h-52z" fill="#000"></path></g></g></svg>