<svg width="25" height="24" viewBox="0 0 25 24" fill="none" xmlns="http://www.w3.org/2000/svg">
<path d="M20.3501 19.0586L19.6242 18.8701L20.3501 19.0586ZM21.4744 10.7486L22.2237 10.7807L21.4744 10.7486ZM6.19568 20.5736L6.33173 19.836L6.19568 20.5736ZM2.77629 10.7807C2.85909 12.7125 3.1576 16.296 3.92399 19.2471L5.37583 18.8701C4.64868 16.07 4.35603 12.6089 4.27491 10.7165L2.77629 10.7807ZM6.05963 21.3111C7.28925 21.5379 9.35701 21.75 12.5 21.75V20.25C9.41602 20.25 7.44465 20.0413 6.33173 19.836L6.05963 21.3111ZM20.7251 10.7165C20.644 12.6089 20.3513 16.07 19.6242 18.8701L21.076 19.2471C21.8424 16.296 22.1409 12.7125 22.2237 10.7807L20.7251 10.7165ZM18.6683 19.836C17.5553 20.0413 15.584 20.25 12.5 20.25V21.75C15.643 21.75 17.7107 21.5379 18.9404 21.3111L18.6683 19.836ZM4.5 10.5H20.5V9H4.5V10.5ZM19.6242 18.8701C19.486 19.4022 19.1218 19.7523 18.6683 19.836L18.9404 21.3111C20.0517 21.1061 20.8142 20.2552 21.076 19.2471L19.6242 18.8701ZM22.2237 10.7807C22.2664 9.78447 21.4608 9 20.5 9V10.5C20.6438 10.5 20.7297 10.6092 20.7251 10.7165L22.2237 10.7807ZM3.92399 19.2471C4.18577 20.2552 4.94831 21.1061 6.05963 21.3111L6.33173 19.836C5.87815 19.7523 5.51403 19.4022 5.37583 18.8701L3.92399 19.2471ZM4.27491 10.7165C4.27032 10.6092 4.35623 10.5 4.5 10.5V9C3.5392 9 2.73359 9.78447 2.77629 10.7807L4.27491 10.7165Z" fill="white"/>
<path d="M6.5 9.75C6.5 10.1642 6.83579 10.5 7.25 10.5C7.66421 10.5 8 10.1642 8 9.75H6.5ZM17 9.75C17 10.1642 17.3358 10.5 17.75 10.5C18.1642 10.5 18.5 10.1642 18.5 9.75H17ZM8 9.75V8H6.5V9.75H8ZM12.25 3.75H12.75V2.25H12.25V3.75ZM17 8V9.75H18.5V8H17ZM12.75 3.75C15.0972 3.75 17 5.65279 17 8H18.5C18.5 4.82436 15.9256 2.25 12.75 2.25V3.75ZM8 8C8 5.65279 9.90279 3.75 12.25 3.75V2.25C9.07436 2.25 6.5 4.82436 6.5 8H8Z" fill="white"/>
<path d="M9.5 14.25V16.5M15.5 14.25V16.5" stroke="white" stroke-width="1.5" stroke-linecap="round" stroke-linejoin="round"/>
</svg>
