<svg width="19" height="19" viewBox="0 0 19 19" fill="none" xmlns="http://www.w3.org/2000/svg">
<path d="M1.36507 14.9972C1.53597 16.4355 2.69476 17.5768 4.1407 17.6612C5.76228 17.7557 7.3987 17.8053 9.20778 17.8053C11.0168 17.8053 12.6533 17.7557 14.2749 17.6612C15.7208 17.5768 16.8796 16.4355 17.0505 14.9972C17.2372 13.4257 17.4156 11.8026 17.4156 10.1424C17.4156 8.4822 17.2372 6.85914 17.0505 5.28763C16.8796 3.84935 15.7208 2.70801 14.2749 2.62367C12.6533 2.52907 11.0168 2.47949 9.20778 2.47949C7.39871 2.47949 5.76228 2.52907 4.1407 2.62367C2.69476 2.70801 1.53597 3.84935 1.36507 5.28763C1.17834 6.85914 1 8.4822 1 10.1424C1 11.8026 1.17834 13.4257 1.36507 14.9972Z" fill="white"/>
<path d="M6.1875 1.00073L6.1875 4.41402" stroke="#505567" stroke-width="1.5" stroke-linecap="round"/>
<path d="M12.2187 1.00073L12.2187 4.41402" stroke="#505567" stroke-width="1.5" stroke-linecap="round"/>
<path d="M14.2749 2.62367L14.2312 3.37239L14.2749 2.62367ZM14.2749 17.6612L14.2312 16.9124L14.2749 17.6612ZM9.20778 17.0553C7.41303 17.0553 5.79118 17.0062 4.18437 16.9124L4.09702 18.4099C5.73339 18.5053 7.38438 18.5553 9.20778 18.5553V17.0553ZM14.2312 16.9124C12.6244 17.0062 11.0025 17.0553 9.20778 17.0553V18.5553C11.0312 18.5553 12.6822 18.5053 14.3185 18.4099L14.2312 16.9124ZM17.7952 15.0857C17.982 13.5143 18.1656 11.8517 18.1656 10.1424H16.6656C16.6656 11.7535 16.4925 13.3371 16.3057 14.9087L17.7952 15.0857ZM18.1656 10.1424C18.1656 8.43313 17.982 6.77052 17.7952 5.19914L16.3057 5.37612C16.4925 6.94776 16.6656 8.53127 16.6656 10.1424H18.1656ZM9.20778 3.22949C11.0025 3.22949 12.6244 3.27866 14.2312 3.37239L14.3185 1.87494C12.6822 1.77948 11.0312 1.72949 9.20778 1.72949V3.22949ZM4.18437 3.37239C5.79118 3.27866 7.41303 3.22949 9.20778 3.22949V1.72949C7.38438 1.72949 5.73339 1.77948 4.09702 1.87494L4.18437 3.37239ZM0.620311 5.19914C0.433596 6.77052 0.25 8.43313 0.25 10.1424H1.75C1.75 8.53127 1.92309 6.94776 2.10983 5.37612L0.620311 5.19914ZM0.25 10.1424C0.25 11.8517 0.433597 13.5143 0.620312 15.0857L2.10983 14.9087C1.92309 13.3371 1.75 11.7535 1.75 10.1424H0.25ZM17.7952 5.19914C17.5835 3.41738 16.1445 1.98145 14.3185 1.87494L14.2312 3.37239C15.2971 3.43457 16.1756 4.28132 16.3057 5.37612L17.7952 5.19914ZM14.3185 18.4099C16.1445 18.3034 17.5835 16.8674 17.7952 15.0857L16.3057 14.9087C16.1756 16.0035 15.2971 16.8502 14.2312 16.9124L14.3185 18.4099ZM4.09702 1.87494C2.27109 1.98145 0.832023 3.41738 0.620311 5.19914L2.10983 5.37612C2.23992 4.28132 3.11843 3.43457 4.18437 3.37239L4.09702 1.87494ZM4.18437 16.9124C3.11843 16.8502 2.23992 16.0035 2.10983 14.9087L0.620312 15.0857C0.832023 16.8674 2.27109 18.3034 4.09702 18.4099L4.18437 16.9124Z" fill="#505567"/>
<path d="M1.39258 8.35962H17.1034" stroke="#505567" stroke-width="1.5"/>
</svg>
