<svg width="26" height="26" viewBox="0 0 26 26" fill="none" xmlns="http://www.w3.org/2000/svg">
<path fill-rule="evenodd" clip-rule="evenodd" d="M2.48191 3.33353C3.99225 1.74523 4.52602 1.29976 5.16963 1.09244C5.61505 0.975925 6.08218 0.969457 6.53066 1.07359C7.12107 1.24493 7.27725 1.37515 9.21324 3.30098C10.9141 4.99208 11.084 5.17541 11.2471 5.50609C11.5588 6.08653 11.6075 6.77224 11.3809 7.3908C11.2093 7.86197 10.9656 8.17381 9.93409 9.20697L9.2613 9.88033C9.08461 10.0596 9.04309 10.3318 9.15832 10.5554C10.6531 13.1012 12.7738 15.2242 15.3198 16.7235C15.6129 16.8802 15.9738 16.8296 16.2123 16.5985L16.8594 15.9628C17.2593 15.5536 17.6828 15.168 18.1277 14.808C18.8265 14.3797 19.6972 14.3414 20.431 14.7069C20.7897 14.8782 20.9081 14.9845 22.6622 16.7321C24.4712 18.5329 24.5227 18.5894 24.7217 19.0023C25.0964 19.6859 25.0925 20.5137 24.7114 21.1937C24.5175 21.5775 24.3991 21.7163 23.3813 22.7546C22.7669 23.3817 22.1885 23.954 22.0958 24.0379C21.2562 24.7319 20.179 25.0723 19.0923 24.9871C17.104 24.8062 15.1796 24.1927 13.4542 23.1898C9.63225 21.1683 6.3786 18.223 3.99054 14.6229C3.4704 13.8695 3.00797 13.078 2.6072 12.2551C1.53208 10.4155 0.976879 8.31934 1.00074 6.18972C1.08282 5.07562 1.61801 4.04358 2.48191 3.33353Z" stroke="#7D818E" stroke-width="1.5" stroke-linecap="round" stroke-linejoin="round"/>
</svg>
