<svg width="20" height="21" viewBox="0 0 20 21" fill="none" xmlns="http://www.w3.org/2000/svg">
<g clip-path="url(#clip0_680_8509)">
<path d="M1.56252 3.29785H17.1875C18.0469 3.29785 18.75 4.00097 18.75 4.86037V6.73538C18.75 7.59478 18.0469 8.2979 17.1875 8.2979H1.56252C0.703122 8.29782 0 7.5947 0 6.73534V4.86033C0 4.00097 0.703122 3.29785 1.56252 3.29785Z" fill="#A86A3F"/>
<path d="M4.98438 4.9692L14.7656 2.37547C15.0938 2.28172 15.4375 2.48485 15.5312 2.81298L17.1562 8.81298C17.25 9.14112 17.0469 9.48484 16.7187 9.57859L3.98438 12.9692C3.65625 13.0629 3.31252 12.8598 3.21878 12.5317L2.03125 8.12545L4.98438 4.9692Z" fill="#5EBA6D"/>
<path d="M15.4534 8.62529L13.3441 9.18777C13.1722 9.23467 13.0003 9.14088 12.9691 8.96902C12.9222 8.79715 13.016 8.62525 13.1878 8.59403L15.0003 8.10966L14.0316 4.48467L12.2191 4.96904C12.0472 5.01593 11.8753 4.92214 11.8441 4.75028C11.7972 4.57842 11.891 4.40652 12.0629 4.37529L14.1722 3.81281C14.3441 3.76592 14.516 3.85971 14.5472 4.03157L15.6722 8.2503C15.719 8.42217 15.6253 8.59403 15.4534 8.62529ZM6.70342 10.9847L4.59405 11.5472C4.42219 11.5941 4.25029 11.5003 4.21906 11.3284L3.09406 7.10967C3.04717 6.93781 3.14096 6.7659 3.31282 6.73468L5.42218 6.1722C5.59405 6.1253 5.76595 6.21909 5.79717 6.39095C5.84406 6.56282 5.75028 6.73472 5.57841 6.76594L3.76592 7.25031L4.73465 10.8753L6.54715 10.3909C6.71901 10.344 6.89091 10.4378 6.92213 10.6097C6.96903 10.7659 6.87528 10.9378 6.70342 10.9847Z" fill="#B3F0BD"/>
<path d="M0.125046 7.15698C2.90627 5.5632 10.4063 1.17256 10.4063 1.17256C10.7032 1.0007 11.0938 1.09445 11.2657 1.39132L14.3907 6.76632C14.5626 7.06319 14.4532 7.43818 14.1563 7.61008L2.71878 14.1726C2.42191 14.3444 2.03129 14.2507 1.85938 13.9538C1.85938 13.9538 0.984399 12.1726 0.109375 10.6725C0.109415 7.15698 0.125046 8.3132 0.125046 7.15698Z" fill="#5EBA6D"/>
<path d="M12.7961 6.594L10.6086 2.81275C10.5149 2.65652 10.3274 2.60962 10.1868 2.70337L8.29616 3.79711C8.13993 3.89086 8.09303 4.07835 8.18678 4.21899C8.28053 4.37522 8.46802 4.42211 8.60866 4.32837L10.2337 3.39086L12.1087 6.64086L10.4837 7.57836C10.3274 7.67211 10.2806 7.85961 10.3743 8.00025C10.468 8.15648 10.6555 8.20337 10.7962 8.10962L12.6868 7.01588C12.8274 6.93777 12.8899 6.75027 12.7961 6.594ZM4.5149 11.0159L2.8899 11.9534L1.01488 8.70337L2.63988 7.76586C2.79611 7.67211 2.84301 7.48462 2.74926 7.34398C2.65551 7.18775 2.46802 7.14085 2.32738 7.2346L0.43677 8.32834C0.280539 8.42209 0.233645 8.60958 0.327392 8.75022L2.51487 12.5315C2.60862 12.6877 2.79611 12.7346 2.93675 12.6409L4.82736 11.5471C4.9836 11.4534 5.03049 11.2659 4.93674 11.1252C4.85863 10.9846 4.67113 10.9221 4.5149 11.0159ZM5.31177 5.50026C4.10865 6.18775 3.7024 7.719 4.38989 8.92212C5.09301 10.1252 6.60864 10.5315 7.81175 9.844C9.01487 9.15651 9.42112 7.62526 8.73363 6.42214C8.03051 5.23461 6.51489 4.81277 5.31177 5.50026ZM12.7961 6.594L10.6086 2.81275C10.5149 2.65652 10.3274 2.60962 10.1868 2.70337L8.29616 3.79711C8.13993 3.89086 8.09303 4.07835 8.18678 4.21899C8.28053 4.37522 8.46802 4.42211 8.60866 4.32837L10.2337 3.39086L12.1087 6.64086L10.4837 7.57836C10.3274 7.67211 10.2806 7.85961 10.3743 8.00025C10.468 8.15648 10.6555 8.20337 10.7962 8.10962L12.6868 7.01588C12.8274 6.93777 12.8899 6.75027 12.7961 6.594ZM4.5149 11.0159L2.8899 11.9534L1.01488 8.70337L2.63988 7.76586C2.79611 7.67211 2.84301 7.48462 2.74926 7.34398C2.65551 7.18775 2.46802 7.14085 2.32738 7.2346L0.43677 8.32834C0.280539 8.42209 0.233645 8.60958 0.327392 8.75022L2.51487 12.5315C2.60862 12.6877 2.79611 12.7346 2.93675 12.6409L4.82736 11.5471C4.9836 11.4534 5.03049 11.2659 4.93674 11.1252C4.85863 10.9846 4.67113 10.9221 4.5149 11.0159ZM5.31177 5.50026C4.10865 6.18775 3.7024 7.719 4.38989 8.92212C5.09301 10.1252 6.60864 10.5315 7.81175 9.844C9.01487 9.15651 9.42112 7.62526 8.73363 6.42214C8.03051 5.23461 6.51489 4.81277 5.31177 5.50026Z" fill="#B3F0BD"/>
<path d="M17.8125 18.9229H1.56252C0.703122 18.9229 0 18.2197 0 17.3603V6.11036H17.8125C18.6719 6.11036 19.375 6.81348 19.375 7.67288V17.3604C19.375 18.2197 18.6719 18.9229 17.8125 18.9229ZM1.25001 6.11036H0V4.86035C0 5.54784 0.562482 6.11036 1.25001 6.11036Z" fill="#C47E4D"/>
<path d="M19.375 15.0166H16.875C15.6719 15.0166 14.6875 14.0322 14.6875 12.8291C14.6875 11.626 15.6719 10.6416 16.875 10.6416H19.375C19.7187 10.6416 20 10.9228 20 11.2666V14.3916C20 14.7353 19.7187 15.0166 19.375 15.0166Z" fill="#A86A3F"/>
<path d="M16.875 11.5791C17.5625 11.5791 18.125 12.1416 18.125 12.8291C18.125 13.5166 17.5625 14.0791 16.875 14.0791C16.1875 14.0791 15.625 13.5166 15.625 12.8291C15.625 12.1416 16.1875 11.5791 16.875 11.5791Z" fill="#EFC75E"/>
<path d="M17.1875 13.7666C16.5 13.7666 15.9375 13.2041 15.9375 12.5166C15.9375 12.251 16.0156 12.001 16.1563 11.7979C15.8281 12.0166 15.625 12.3916 15.625 12.8291C15.625 13.5166 16.1875 14.0791 16.875 14.0791C17.2969 14.0791 17.6719 13.8604 17.9063 13.5479C17.7031 13.6885 17.4531 13.7666 17.1875 13.7666Z" fill="#D7B354"/>
<path d="M17.8125 18.2979H1.56252C0.703122 18.2979 0 17.5947 0 16.7354V17.3604C0 18.2197 0.703122 18.9229 1.56252 18.9229H17.8125C18.6719 18.9229 19.375 18.2197 19.375 17.3604V16.7354C19.375 17.5947 18.6719 18.2979 17.8125 18.2979Z" fill="#B27245"/>
<path d="M17.8125 6.11036H1.25001C0.562482 6.11036 0 5.54784 0 4.86035V5.48536C0 6.17285 0.562482 6.73537 1.25001 6.73537H17.8125C18.6719 6.73537 19.375 7.43849 19.375 8.29789V7.67288C19.375 6.81349 18.6719 6.11036 17.8125 6.11036Z" fill="#CA8B5F"/>
</g>
<defs>
<clipPath id="clip0_680_8509">
<rect width="20" height="20" fill="white" transform="translate(0 0.00488281)"/>
</clipPath>
</defs>
</svg>
